# xmcd
#
# Track frame offsets:
#	150
#	27095
#	59347
#	72109
#	99722
#	122599
#	145983
#
# Disc length: 2300 seconds
#
# Revision: 1
# Processed by: cddbd v1.5.1PL2 Copyright (c) Steve Scherf et al.
# Submitted via: CDmax 2.0
#
DISCID=5e08fa07
DTITLE=Los Lonely Boys - Live at the Bridge School Benefit - 10.24.2004
DYEAR=2004
DGENRE=Blues
TTITLE0=Crazy Dream
TTITLE1=Hollywood
TTITLE2=More Than Love
TTITLE3=Senorita
TTITLE4=My Loneliness
TTITLE5=Real Emotions
TTITLE6=Heaven
EXTD=Los Lonely Boys\n10.24.2004\nShoreline Amphitheatre\nMountain View, CA\n
EXTD=\nThe Bridge School Benefit\n\nCrazy Dream\nHollywood\nMore Than Love\nS
EXTD=enorita\nMy Loneliness\nReal Emotions\nHeaven
EXTT0=
EXTT1=
EXTT2=
EXTT3=
EXTT4=
EXTT5=
EXTT6=
PLAYORDER=
